<svg xmlns="http://www.w3.org/2000/svg" width="32" height="32" viewBox="0 0 32 32">
  <metadata><?xpacket begin="﻿" id="W5M0MpCehiHzreSzNTczkc9d"?>
<x:xmpmeta xmlns:x="adobe:ns:meta/" x:xmptk="Adobe XMP Core 5.6-c138 79.159824, 2016/09/14-01:09:01        ">
   <rdf:RDF xmlns:rdf="http://www.w3.org/1999/02/22-rdf-syntax-ns#">
      <rdf:Description rdf:about=""/>
   </rdf:RDF>
</x:xmpmeta>
                                                                                                    
                                                                                                    
                                                                                                    
                                                                                                    
                                                                                                    
                                                                                                    
                                                                                                    
                                                                                                    
                                                                                                    
                                                                                                    
                                                                                                    
                                                                                                    
                                                                                                    
                                                                                                    
                                                                                                    
                                                                                                    
                                                                                                    
                                                                                                    
                                                                                                    
                                                                                                    
                           
<?xpacket end="w"?></metadata>
<defs>
    <style>
      .cls-1 {
        fill: #95e1d3;
        fill-rule: evenodd;
      }
    </style>
  </defs>
  <path id="IMAGE" class="cls-1" d="M1220.5,1428h-29a1.5,1.5,0,0,1-1.5-1.5v-29a1.5,1.5,0,0,1,1.5-1.5h29a1.5,1.5,0,0,1,1.5,1.5v29A1.5,1.5,0,0,1,1220.5,1428Zm-1.5-29h-26v26h26v-26Zm-22.5,1.5h5.5a1.5,1.5,0,0,1,0,3h-4.5v4.5h0a1.5,1.5,0,0,1-3,0h0v-5.5h0v-2h2Zm-2,15.5h0a1.5,1.5,0,0,1,3,0h0v4.5h4.5a1.5,1.5,0,0,1,0,3h-7.5v-2h0V1416Zm15.5-15.5h7.5v2h0v5.5h0a1.5,1.5,0,0,1-3,0h0v-4.5H1210A1.5,1.5,0,0,1,1210,1400.5Zm0,20h4.5V1416h0a1.5,1.5,0,0,1,3,0h0v5.5h0v2H1210A1.5,1.5,0,0,1,1210,1420.5Z" transform="translate(-1190 -1396)"/>
</svg>
