<svg xmlns="http://www.w3.org/2000/svg" width="31" height="28" viewBox="0 0 31 28">
  <metadata><?xpacket begin="﻿" id="W5M0MpCehiHzreSzNTczkc9d"?>
<x:xmpmeta xmlns:x="adobe:ns:meta/" x:xmptk="Adobe XMP Core 5.6-c138 79.159824, 2016/09/14-01:09:01        ">
   <rdf:RDF xmlns:rdf="http://www.w3.org/1999/02/22-rdf-syntax-ns#">
      <rdf:Description rdf:about=""/>
   </rdf:RDF>
</x:xmpmeta>
                                                                                                    
                                                                                                    
                                                                                                    
                                                                                                    
                                                                                                    
                                                                                                    
                                                                                                    
                                                                                                    
                                                                                                    
                                                                                                    
                                                                                                    
                                                                                                    
                                                                                                    
                                                                                                    
                                                                                                    
                                                                                                    
                                                                                                    
                                                                                                    
                                                                                                    
                                                                                                    
                           
<?xpacket end="w"?></metadata>
<defs>
    <style>
      .cls-1 {
        fill: #95e1d3;
        fill-rule: evenodd;
      }
    </style>
  </defs>
  <path id="COMPUTER_OK" data-name="COMPUTER / OK" class="cls-1" d="M1220,1250h-9.5v2.5l2,2v0.5h-13v-0.5l2-2V1250H1192a1.5,1.5,0,0,1-1.5-1.5v-20a1.5,1.5,0,0,1,1.5-1.5h28a1.5,1.5,0,0,1,1.5,1.5v20A1.5,1.5,0,0,1,1220,1250Zm-0.5-21h-27v17h27v-17Zm-16.5,7a1.505,1.505,0,0,1,1.06.44h0l0.94,0.94,2.94-2.94h0a1.5,1.5,0,1,1,2.12,2.12h0l-4,4h0a1.5,1.5,0,0,1-2.12,0h0l-2-2h0A1.5,1.5,0,0,1,1203,1236Z" transform="translate(-1190.5 -1227)"/>
</svg>
