<svg xmlns="http://www.w3.org/2000/svg" width="32" height="30.5" viewBox="0 0 32 30.5">
  <metadata><?xpacket begin="﻿" id="W5M0MpCehiHzreSzNTczkc9d"?>
<x:xmpmeta xmlns:x="adobe:ns:meta/" x:xmptk="Adobe XMP Core 5.6-c138 79.159824, 2016/09/14-01:09:01        ">
   <rdf:RDF xmlns:rdf="http://www.w3.org/1999/02/22-rdf-syntax-ns#">
      <rdf:Description rdf:about=""/>
   </rdf:RDF>
</x:xmpmeta>
                                                                                                    
                                                                                                    
                                                                                                    
                                                                                                    
                                                                                                    
                                                                                                    
                                                                                                    
                                                                                                    
                                                                                                    
                                                                                                    
                                                                                                    
                                                                                                    
                                                                                                    
                                                                                                    
                                                                                                    
                                                                                                    
                                                                                                    
                                                                                                    
                                                                                                    
                                                                                                    
                           
<?xpacket end="w"?></metadata>
<defs>
    <style>
      .cls-1 {
        fill: #95e1d3;
        fill-rule: evenodd;
      }
    </style>
  </defs>
  <path id="HOME" class="cls-1" d="M822,1412.5a1.493,1.493,0,0,1-2.52,1.09l0,0.01-13.439-13.44h0l-0.038-.04h0l-13.446,13.45h0a1.525,1.525,0,0,1-1.053.43,1.5,1.5,0,0,1-1.5-1.5,1.479,1.479,0,0,1,.461-1.08l14.458-14.46a1.51,1.51,0,0,1,1.081-.46h0.092c0.023,0,.045.01,0.068,0.01h0a1.479,1.479,0,0,1,.933.47h0l5.9,5.9v-1.38a1.5,1.5,0,0,1,3,0v4.38l5.6,5.6h0A1.485,1.485,0,0,1,822,1412.5Zm-3,2.5v10.5a1.5,1.5,0,0,1-1.5,1.5h-3v-12h-6v12h-14a1.5,1.5,0,0,1-1.5-1.5V1415l13-13Zm-15.5,0h-6v6h6v-6Z" transform="translate(-790 -1396.5)"/>
</svg>
