<svg xmlns="http://www.w3.org/2000/svg" width="32" height="30.5"><path d="M30.74 9.5a15.727 15.727 0 0 0-8.243-8.24A5.868 5.868 0 0 1 30.74 9.5zM30.5 16a14.442 14.442 0 0 1-3.963 9.94l2.029 2.03a1.482 1.482 0 0 1-1.049 2.53 1.51 1.51 0 0 1-1.049-.43l-2.178-2.18a14.471 14.471 0 0 1-16.566.01l-2.163 2.16a1.5 1.5 0 1 1-2.122-2.12l2.012-2.01A14.495 14.495 0 1 1 30.5 16zM16 4.5A11.5 11.5 0 1 0 27.5 16 11.5 11.5 0 0 0 16 4.5zm6 13h-6a1.5 1.5 0 0 1-1.5-1.5V8a1.5 1.5 0 0 1 3 0v6.5H22a1.5 1.5 0 0 1 0 3zM1.287 9.71A6 6 0 0 1 6 0a5.935 5.935 0 0 1 3.706 1.29 16.016 16.016 0 0 0-8.419 8.42z" fill="#95e1d3" fill-rule="evenodd"/></svg>