<svg xmlns="http://www.w3.org/2000/svg" width="32" height="32" viewBox="0 0 32 32">
  <metadata><?xpacket begin="﻿" id="W5M0MpCehiHzreSzNTczkc9d"?>
<x:xmpmeta xmlns:x="adobe:ns:meta/" x:xmptk="Adobe XMP Core 5.6-c138 79.159824, 2016/09/14-01:09:01        ">
   <rdf:RDF xmlns:rdf="http://www.w3.org/1999/02/22-rdf-syntax-ns#">
      <rdf:Description rdf:about=""/>
   </rdf:RDF>
</x:xmpmeta>
                                                                                                    
                                                                                                    
                                                                                                    
                                                                                                    
                                                                                                    
                                                                                                    
                                                                                                    
                                                                                                    
                                                                                                    
                                                                                                    
                                                                                                    
                                                                                                    
                                                                                                    
                                                                                                    
                                                                                                    
                                                                                                    
                                                                                                    
                                                                                                    
                                                                                                    
                                                                                                    
                           
<?xpacket end="w"?></metadata>
<defs>
    <style>
      .cls-1 {
        fill: #95e1d3;
        fill-rule: evenodd;
      }
    </style>
  </defs>
  <path id="BOOK_2" data-name="BOOK 2" class="cls-1" d="M422.065,1421.89l-14.471,5.99a1.53,1.53,0,0,1-1.188,0l-14.471-5.99a1.5,1.5,0,0,1-.935-1.39v-23a1.5,1.5,0,0,1,1.5-1.5,1.55,1.55,0,0,1,.573.11h0a0.012,0.012,0,0,0,.013.01L407,1401.88l13.911-5.76a0.012,0.012,0,0,0,.013-0.01h0a1.55,1.55,0,0,1,.573-0.11,1.5,1.5,0,0,1,1.5,1.5v23A1.5,1.5,0,0,1,422.065,1421.89ZM405.5,1404.5l-11.5-4.76v19.76l11.5,4.76V1404.5Zm14.5-4.76-11.5,4.76v19.76l11.5-4.76v-19.76Zm-9.121,6.89,5.5-2.5h0A1.593,1.593,0,0,1,417,1404a1.5,1.5,0,0,1,.621,2.87h0l-5.5,2.5h0a1.6,1.6,0,0,1-.621.13A1.5,1.5,0,0,1,410.879,1406.63Zm0,5.5h0l5.5-2.5h0a1.593,1.593,0,0,1,.621-0.13,1.5,1.5,0,0,1,.621,2.87l-5.5,2.5v-0.01a1.445,1.445,0,0,1-.621.14A1.5,1.5,0,0,1,410.879,1412.13Zm0,5.5h0l5.5-2.5h0A1.593,1.593,0,0,1,417,1415a1.5,1.5,0,0,1,.621,2.87h0l-5.5,2.5h0a1.6,1.6,0,0,1-.621.13A1.5,1.5,0,0,1,410.879,1417.63ZM397,1404a1.6,1.6,0,0,1,.621.13h0l5.5,2.5h0a1.5,1.5,0,0,1-.621,2.87,1.593,1.593,0,0,1-.621-0.13h0l-5.5-2.5h0A1.5,1.5,0,0,1,397,1404Zm0,5.5a1.6,1.6,0,0,1,.621.13h0l5.5,2.5h0a1.5,1.5,0,0,1-.621,2.87,1.439,1.439,0,0,1-.621-0.14v0.01l-5.5-2.5h0A1.5,1.5,0,0,1,397,1409.5Zm0,5.5a1.6,1.6,0,0,1,.621.13h0l5.5,2.5h0a1.5,1.5,0,0,1-.621,2.87,1.593,1.593,0,0,1-.621-0.13h0l-5.5-2.5h0A1.5,1.5,0,0,1,397,1415Z" transform="translate(-391 -1396)"/>
</svg>
