<svg aria-hidden="true" style="position: absolute; width: 0; height: 0; overflow: hidden;" version="1.1" xmlns="http://www.w3.org/2000/svg" xmlns:xlink="http://www.w3.org/1999/xlink">
<defs>
<symbol id="icon-line" viewBox="0 0 32 32">
<title>LINE-GRAPH</title>
<path  d="M30.5 32h-29c-0.828 0-1.5-0.672-1.5-1.5v0-29c0-0.828 0.672-1.5 1.5-1.5v0h29c0.828 0 1.5 0.672 1.5 1.5v0 29c0 0.828-0.672 1.5-1.5 1.5v0zM29 3h-26v26h26v-26zM5.215 16.24l4-2.5c0.225-0.138 0.497-0.22 0.789-0.22 0.311 0 0.601 0.093 0.842 0.253l-0.006-0.004h0.006l6.631 4.42 7.638-5.4c0.244-0.179 0.55-0.286 0.881-0.286 0.829 0 1.501 0.672 1.501 1.501 0 0.498-0.242 0.939-0.615 1.212l-0.004 0.003-8.5 6c-0.242 0.18-0.547 0.289-0.878 0.29h-0c-0.323-0.003-0.622-0.107-0.865-0.283l0.004 0.003-6.657-4.43-3.135 1.95c-0.236 0.169-0.529 0.27-0.847 0.27h-0c-0.001 0-0.002 0-0.003 0-0.828 0-1.5-0.672-1.5-1.5 0-0.539 0.284-1.012 0.712-1.276l0.006-0.004z"></path>
</symbol>
<symbol id="icon-cart" viewBox="0 0 32 32">
<title>SHOPPING-CART</title>
<path  d="M31.188 9.063l-4.41 9.78c-0.22 0.488-0.689 0.829-1.241 0.86l-0.004 0-12.66 0.845 0.729 2.093h13.798c1.62 0 2.934 1.314 2.934 2.934s-1.314 2.934-2.934 2.934c-1.62 0-2.933-1.313-2.934-2.932v-0h-13.691c-0.001 1.62-1.314 2.932-2.934 2.932s-2.934-1.314-2.934-2.934 1.314-2.934 2.934-2.934h2.649l-5.654-16.136h-3.361c-0.81 0-1.467-0.657-1.467-1.467s0.657-1.467 1.467-1.467v0h4.41c0.636 0.005 1.177 0.409 1.384 0.975l0.003 0.010 0.854 2.441h21.711c0.002 0 0.005-0 0.007-0 0.811 0 1.468 0.657 1.469 1.467v0c-0.005 0.217-0.050 0.422-0.129 0.61l0.004-0.011zM9.157 9.929l2.703 7.747 12.607-0.841 3.112-6.906h-18.421z"></path>
</symbol>
<symbol id="icon-home" viewBox="0 0 32 32">
<title>HOME</title>
<path  d="M32 16.5c0 0.002 0 0.004 0 0.006 0 0.825-0.668 1.493-1.493 1.493-0.398 0-0.76-0.156-1.028-0.41l0.001 0.001v0.010l-13.477-13.48-13.446 13.45c-0.272 0.264-0.643 0.428-1.053 0.43h-0c-0.828 0-1.5-0.672-1.5-1.5v0c0-0.002-0-0.005-0-0.007 0-0.422 0.177-0.803 0.46-1.072l0.001-0.001 14.458-14.46c0.274-0.283 0.657-0.459 1.081-0.46h0.092c0.023 0 0.045 0.010 0.068 0.010 0.371 0.040 0.696 0.213 0.932 0.469l0.001 0.001 5.9 5.9v-1.38c0-0.828 0.672-1.5 1.5-1.5s1.5 0.672 1.5 1.5v0 4.38l5.6 5.6c0.25 0.265 0.403 0.623 0.403 1.017 0 0.001 0 0.002 0 0.003v-0zM29 19v10.5c0 0.828-0.672 1.5-1.5 1.5v0h-3v-12h-6v12h-14c-0.828 0-1.5-0.672-1.5-1.5v0-10.5l13-13zM13.5 19h-6v6h6v-6z"></path>
</symbol>
<symbol id="icon-comp" viewBox="0 0 32 32">
<title>COMPUTER-_-OK</title>
<path d="M30.452 25.29h-9.806v2.581l2.065 2.065v0.516h-13.419v-0.516l2.065-2.065v-2.581h-9.806c-0.855 0-1.548-0.693-1.548-1.548v0-20.645c0-0.855 0.693-1.548 1.548-1.548v0h28.903c0.855 0 1.548 0.693 1.548 1.548v0 20.645c0 0.855-0.693 1.548-1.548 1.548v0zM29.935 3.613h-27.871v17.548h27.871v-17.548zM12.903 10.839c0.427 0.001 0.814 0.174 1.094 0.454l0.97 0.97 3.035-3.035c0.283-0.304 0.686-0.493 1.133-0.493 0.855 0 1.548 0.693 1.548 1.548 0 0.447-0.189 0.849-0.492 1.132l-0.001 0.001-4.129 4.129c-0.28 0.28-0.667 0.453-1.094 0.453s-0.814-0.173-1.094-0.453l-2.065-2.065c-0.28-0.28-0.453-0.667-0.453-1.094 0-0.855 0.692-1.548 1.547-1.548h0z"></path>
</symbol>
<symbol id="icon-alarm" viewBox="0 0 32 32">
<title>ALARM</title>
<path d="M30.74 10c-1.624-3.714-4.528-6.617-8.142-8.2l-0.101-0.040c0.989-0.787 2.257-1.262 3.636-1.262 3.241 0 5.868 2.627 5.868 5.868 0 1.378-0.475 2.645-1.27 3.646l0.009-0.012zM30.5 16.5c0 0.001 0 0.001 0 0.002 0 3.854-1.509 7.355-3.969 9.944l0.006-0.006 2.029 2.030c0.268 0.268 0.434 0.639 0.434 1.048 0 0.819-0.663 1.482-1.482 1.482-0 0-0.001 0-0.001 0h0c-0.409-0.002-0.779-0.166-1.049-0.43l-2.178-2.18c-2.311 1.633-5.186 2.61-8.29 2.61-3.098 0-5.968-0.973-8.322-2.631l0.046 0.031-2.163 2.16c-0.273 0.283-0.656 0.458-1.079 0.458-0.828 0-1.5-0.672-1.5-1.5 0-0.423 0.175-0.805 0.457-1.078l2.012-2.010c-2.441-2.588-3.941-6.087-3.941-9.936 0-8.005 6.49-14.495 14.495-14.495s14.495 6.49 14.495 14.495c0 0.002 0 0.004 0 0.006v-0zM16 5c-6.351 0-11.5 5.149-11.5 11.5s5.149 11.5 11.5 11.5c6.351 0 11.5-5.149 11.5-11.5v0c0-6.351-5.149-11.5-11.5-11.5v0zM22 18h-6c-0.828 0-1.5-0.672-1.5-1.5v0-8c0-0.828 0.672-1.5 1.5-1.5s1.5 0.672 1.5 1.5v0 6.5h4.5c0.828 0 1.5 0.672 1.5 1.5s-0.672 1.5-1.5 1.5v0zM1.287 10.21c-0.801-1.010-1.284-2.304-1.284-3.71 0-3.313 2.685-5.999 5.997-6h0c0.003 0 0.008 0 0.012 0 1.402 0 2.691 0.486 3.706 1.299l-0.012-0.009c-3.797 1.655-6.765 4.622-8.379 8.317l-0.040 0.103z"></path>
</symbol>
<symbol id="icon-book" viewBox="0 0 32 32">
<title>BOOK-2</title>
<path  d="M31.065 25.89l-14.471 5.99c-0.175 0.076-0.38 0.12-0.594 0.12s-0.419-0.044-0.604-0.124l0.010 0.004-14.471-5.99c-0.553-0.229-0.935-0.765-0.935-1.39 0-0 0-0 0-0v0-23c0-0.828 0.672-1.5 1.5-1.5v0c0.206 0 0.403 0.040 0.583 0.114l-0.010-0.004c0.001 0.006 0.006 0.010 0.012 0.010 0 0 0.001-0 0.001-0h-0l13.914 5.76 13.911-5.76c0 0 0.001 0 0.001 0 0.006 0 0.011-0.004 0.012-0.010v-0c0.17-0.070 0.367-0.11 0.573-0.11h0c0.828 0 1.5 0.672 1.5 1.5v0 23c0 0 0 0.001 0 0.002 0 0.624-0.381 1.158-0.922 1.385l-0.010 0.004zM14.5 8.5l-11.5-4.76v19.76l11.5 4.76v-19.76zM29 3.74l-11.5 4.76v19.76l11.5-4.76v-19.76zM19.879 10.63l5.5-2.5c0.183-0.081 0.396-0.129 0.62-0.13h0c0.003-0 0.007-0 0.010-0 0.828 0 1.5 0.672 1.5 1.5 0 0.607-0.361 1.13-0.88 1.366l-0.009 0.004-5.5 2.5c-0.183 0.081-0.396 0.128-0.62 0.13h-0.001c-0.003 0-0.007 0-0.010 0-0.828 0-1.5-0.672-1.5-1.5 0-0.607 0.361-1.13 0.88-1.366l0.009-0.004zM19.879 16.13l5.5-2.5c0.183-0.081 0.396-0.129 0.62-0.13h0c0.003-0 0.007-0 0.010-0 0.828 0 1.5 0.672 1.5 1.5 0 0.607-0.361 1.13-0.88 1.366l-0.009 0.004-5.5 2.5v-0.010c-0.182 0.088-0.395 0.14-0.62 0.14-0 0-0 0-0.001 0h0c-0.003 0-0.007 0-0.010 0-0.828 0-1.5-0.672-1.5-1.5 0-0.607 0.361-1.13 0.88-1.366l0.009-0.004zM19.879 21.63l5.5-2.5c0.183-0.081 0.396-0.129 0.62-0.13h0c0.003-0 0.007-0 0.010-0 0.828 0 1.5 0.672 1.5 1.5 0 0.607-0.361 1.13-0.88 1.366l-0.009 0.004-5.5 2.5c-0.183 0.081-0.396 0.128-0.62 0.13h-0.001c-0.003 0-0.007 0-0.010 0-0.828 0-1.5-0.672-1.5-1.5 0-0.607 0.361-1.13 0.88-1.366l0.009-0.004zM6 8c0.225 0.002 0.438 0.049 0.631 0.134l-0.010-0.004 5.5 2.5c0.528 0.24 0.889 0.763 0.889 1.37 0 0.828-0.672 1.5-1.5 1.5-0.004 0-0.007 0-0.011-0h0.001c-0.225-0.001-0.438-0.049-0.631-0.134l0.010 0.004-5.5-2.5c-0.528-0.24-0.889-0.763-0.889-1.37 0-0.828 0.672-1.5 1.5-1.5 0.004 0 0.007 0 0.011 0h-0.001zM6 13.5c0.225 0.002 0.438 0.049 0.631 0.134l-0.010-0.004 5.5 2.5c0.528 0.24 0.889 0.763 0.889 1.37 0 0.828-0.672 1.5-1.5 1.5-0.004 0-0.007 0-0.011-0h0.001c-0.001 0-0.001 0-0.002 0-0.225 0-0.438-0.052-0.628-0.144l0.009 0.004v0.010l-5.5-2.5c-0.528-0.24-0.889-0.763-0.889-1.37 0-0.828 0.672-1.5 1.5-1.5 0.004 0 0.007 0 0.011 0h-0.001zM6 19c0.225 0.002 0.438 0.049 0.631 0.134l-0.010-0.004 5.5 2.5c0.528 0.24 0.889 0.763 0.889 1.37 0 0.828-0.672 1.5-1.5 1.5-0.004 0-0.007 0-0.011-0h0.001c-0.225-0.001-0.438-0.049-0.631-0.134l0.010 0.004-5.5-2.5c-0.528-0.24-0.889-0.763-0.889-1.37 0-0.828 0.672-1.5 1.5-1.5 0.004 0 0.007 0 0.011 0h-0.001z"></path>
</symbol>
<symbol id="icon-image" viewBox="0 0 32 32">
<title>IMAGE</title>
<path  d="M30.5 32h-29c-0.828 0-1.5-0.672-1.5-1.5v0-29c0-0.828 0.672-1.5 1.5-1.5v0h29c0.828 0 1.5 0.672 1.5 1.5v0 29c0 0.828-0.672 1.5-1.5 1.5v0zM29 3h-26v26h26v-26zM6.5 4.5h5.5c0.828 0 1.5 0.672 1.5 1.5s-0.672 1.5-1.5 1.5v0h-4.5v4.5c0 0.828-0.672 1.5-1.5 1.5s-1.5-0.672-1.5-1.5v0-7.5h2zM4.5 20c0-0.828 0.672-1.5 1.5-1.5s1.5 0.672 1.5 1.5v0 4.5h4.5c0.828 0 1.5 0.672 1.5 1.5s-0.672 1.5-1.5 1.5v0h-7.5v-7.5zM20 4.5h7.5v7.5c0 0.828-0.672 1.5-1.5 1.5s-1.5-0.672-1.5-1.5v0-4.5h-4.5c-0.828 0-1.5-0.672-1.5-1.5s0.672-1.5 1.5-1.5v0zM20 24.5h4.5v-4.5c0-0.828 0.672-1.5 1.5-1.5s1.5 0.672 1.5 1.5v0 7.5h-7.5c-0.828 0-1.5-0.672-1.5-1.5s0.672-1.5 1.5-1.5v0z"></path>
</symbol>
<symbol id="icon-glass" viewBox="0 0 32 32">
<title>MAGNIFYING-GLASS</title>
<path  d="M31.097 26.849c0.511 0.537 0.825 1.265 0.825 2.066 0 1.657-1.343 3-3 3-0.804 0-1.534-0.316-2.073-0.831l0.001 0.001-8.765-8.776c-1.752 1.055-3.868 1.679-6.129 1.679-6.642 0-12.026-5.384-12.026-12.026s5.384-12.026 12.026-12.026c6.642 0 12.026 5.384 12.026 12.026 0 2.254-0.62 4.363-1.699 6.166l0.030-0.055 8.783 8.776zM12.006 3.014c-4.961 0-8.983 4.022-8.983 8.983s4.022 8.983 8.983 8.983c4.961 0 8.983-4.022 8.983-8.983v0c-0.003-4.96-4.023-8.98-8.983-8.983h-0z"></path>
</symbol>
<symbol id="icon-facebook" viewBox="0 0 15 32">
<title>facebook</title>
<path  d="M14.982 0.013v5.147s-3.794-0.375-4.747 1.074c-0.52 0.799-0.211 3.123-0.257 4.797h5.033c-0.425 1.949-0.73 3.273-1.043 4.972h-4.017v15.99h-6.973v-15.927h-2.967v-5.034h2.934c0.15-3.685 0.206-7.333 2.035-9.182 2.056-2.086 4.020-1.836 10.002-1.836z"></path>
</symbol>
<symbol id="icon-instagram" viewBox="0 0 32 32">
<title>instagram</title>
<path  d="M27.959 31.992h-23.984c-2.208 0-3.997-1.79-3.997-3.997v0-23.984c0-2.208 1.79-3.997 3.997-3.997v0h23.984c2.208 0 3.997 1.79 3.997 3.997v0 23.984c0 2.208-1.79 3.997-3.997 3.997v0zM15.967 9.806c-0 0-0.001 0-0.001 0-2.478 0-4.616 1.456-5.604 3.56l-0.016 0.038c-0.008 0.024-0.017 0.045-0.028 0.064l0.001-0.001c-0.038 0.082-0.092 0.219-0.142 0.357l-0.018 0.056c-0.024 0.062-0.050 0.125-0.071 0.187-0.046 0.137-0.084 0.287-0.125 0.425-0.018 0.062-0.037 0.137-0.052 0.2-0.032 0.15-0.055 0.3-0.076 0.462-0.009 0.062-0.021 0.125-0.029 0.187-0.023 0.198-0.036 0.428-0.036 0.661v0.001c0 3.422 2.774 6.196 6.196 6.196s6.196-2.774 6.196-6.196v0c-0.001-0.234-0.014-0.464-0.039-0.691l0.003 0.029c-0.008-0.062-0.020-0.125-0.029-0.187-0.023-0.187-0.050-0.344-0.083-0.499l0.007 0.037c-0.026-0.108-0.044-0.175-0.063-0.241l0.010 0.042c-0.035-0.137-0.072-0.287-0.125-0.425-0.021-0.062-0.047-0.125-0.071-0.187-0.068-0.194-0.122-0.33-0.18-0.464l0.020 0.052c-0.011-0.018-0.020-0.039-0.027-0.060l-0.001-0.002c-1.004-2.14-3.14-3.596-5.616-3.598h-0zM28.359 5.209c0-0.001 0-0.002 0-0.003 0-0.882-0.715-1.596-1.596-1.596-0.001 0-0.002 0-0.003 0h-3.198c-0.001 0-0.002 0-0.003 0-0.882 0-1.596 0.715-1.596 1.596 0 0.001 0 0.002 0 0.003v-0 3.198c0 0.001 0 0.002 0 0.002 0 0.882 0.715 1.596 1.596 1.596 0.001 0 0.002 0 0.003 0h3.198c0.001 0 0.002 0 0.003 0 0.882 0 1.596-0.715 1.596-1.596 0-0.001 0-0.002 0-0.003v0-3.198zM28.359 13.404h-2.948c0.222 0.778 0.35 1.671 0.35 2.594 0 5.409-4.385 9.794-9.794 9.794s-9.794-4.385-9.794-9.794c0-0.923 0.128-1.816 0.366-2.663l-0.017 0.069h-2.948v13.391c0 0.001 0 0.002 0 0.003 0 0.882 0.715 1.596 1.596 1.596 0.001 0 0.002 0 0.003 0h21.586c0.001 0 0.002 0 0.003 0 0.882 0 1.596-0.715 1.596-1.596 0-0.001 0-0.002 0-0.003v0-13.391z"></path>
</symbol>
<symbol id="icon-pinterest" viewBox="0 0 24 32">
<title>pinterest</title>
<path d="M10.169 20.774c-0.261 1.049-0.525 2.136-0.797 3.198-0.268 1.217-0.576 2.249-0.951 3.249l0.054-0.163c-0.652 1.69-1.513 3.149-2.574 4.437l0.022-0.027c-0.718 0.824-0.566 0.5-0.782 0.45-0.165-0.037-0.179-0.2-0.211-0.425-0.055-0.61-0.086-1.319-0.086-2.036 0-0.752 0.034-1.496 0.102-2.231l-0.007 0.094c0.115-1.598 0.376-3.081 0.774-4.507l-0.038 0.159c0.605-2.573 1.182-5.097 1.793-7.695 0.063-0.162 0.104-0.35 0.112-0.546l0-0.004c-0.257-0.619-0.446-1.337-0.532-2.086l-0.003-0.037c-0.026-0.223-0.041-0.481-0.041-0.742 0-0.602 0.078-1.186 0.225-1.741l-0.011 0.047c0.268-1.324 1.155-2.395 2.34-2.913l0.026-0.010c0.262-0.091 0.565-0.144 0.88-0.144 0.471 0 0.914 0.118 1.302 0.326l-0.015-0.007c0.556 0.337 0.953 0.887 1.081 1.534l0.002 0.015c0.052 0.286 0.082 0.614 0.082 0.95 0 0.502-0.066 0.988-0.19 1.45l0.009-0.039c-0.334 1.524-0.772 2.673-1.171 4.135-0.181 0.472-0.286 1.018-0.286 1.589 0 0.237 0.018 0.47 0.053 0.698l-0.003-0.025c0.148 0.664 0.528 1.221 1.050 1.593l0.008 0.005c0.503 0.364 1.133 0.582 1.813 0.582 0.076 0 0.152-0.003 0.227-0.008l-0.010 0.001c1.384-0.127 2.572-0.868 3.302-1.946l0.010-0.016c1.169-1.641 1.928-3.647 2.090-5.82l0.002-0.039c0.068-0.527 0.107-1.137 0.107-1.756 0-0.265-0.007-0.529-0.021-0.791l0.002 0.037c-0.059-1.479-0.579-2.826-1.42-3.913l0.012 0.016c-0.803-0.985-1.869-1.728-3.091-2.123l-0.047-0.013c-0.885-0.274-1.903-0.432-2.958-0.432-0.609 0-1.205 0.053-1.785 0.153l0.062-0.009c-2.693 0.411-4.926 2.073-6.118 4.364l-0.022 0.046c-0.659 1.208-1.046 2.646-1.046 4.174 0 0.030 0 0.060 0 0.091l-0-0.005c-0.002 0.052-0.003 0.113-0.003 0.174 0 1.093 0.317 2.113 0.863 2.972l-0.013-0.023c0.166 0.25 0.41 0.462 0.572 0.749 0.040 0.156 0.064 0.334 0.064 0.519 0 0.338-0.078 0.659-0.218 0.943l0.006-0.013c-0.137 0.537-0.152 1.262-0.772 1.274-0.301-0.034-0.573-0.141-0.802-0.303l0.005 0.004c-1.635-1.003-2.772-2.683-3.022-4.64l-0.003-0.032c-0.118-0.607-0.185-1.304-0.185-2.017s0.067-1.411 0.196-2.087l-0.011 0.069c0.684-3.298 2.698-6.028 5.443-7.653l0.054-0.029c1.404-0.837 3.053-1.428 4.814-1.667l0.067-0.007c0.59-0.089 1.283-0.147 1.987-0.162l0.018-0c0.171-0.009 0.371-0.014 0.573-0.014 1.748 0 3.409 0.373 4.907 1.044l-0.076-0.030c1.462 0.656 2.7 1.562 3.715 2.677l0.008 0.009c1.044 1.139 1.835 2.527 2.273 4.063l0.018 0.072c0.292 0.849 0.472 1.829 0.499 2.848l0 0.013c-0.047 1.076-0.185 2.092-0.407 3.076l0.022-0.116c-0.421 3.338-2.201 6.192-4.76 8.034l-0.035 0.024c-1.324 0.865-2.945 1.38-4.686 1.38-0.109 0-0.218-0.002-0.326-0.006l0.016 0c-0.918-0.057-1.763-0.319-2.506-0.74l0.029 0.015c-0.69-0.365-1.25-0.896-1.637-1.543l-0.010-0.019z"></path>
</symbol>
<symbol id="icon-twitter" viewBox="0 0 39 32">
<title>twitter</title>
<path  d="M26.805 0.024c0.121-0.006 0.262-0.010 0.404-0.010 2.35 0 4.472 0.977 5.982 2.546l0.003 0.003c1.552-0.258 2.944-0.747 4.211-1.435l-0.070 0.035 1.005-0.554c-0.51 1.537-1.417 2.827-2.601 3.789l-0.015 0.012c-0.257 0.244-0.549 0.454-0.867 0.621l-0.021 0.010v0.015c1.693-0.182 3.241-0.617 4.669-1.27l-0.094 0.038v0.015c-0.764 1.212-1.673 2.247-2.72 3.122l-0.021 0.017c-0.42 0.339-0.842 0.677-1.262 1 0.012 0.28 0.019 0.609 0.019 0.939 0 1.507-0.143 2.981-0.416 4.408l0.023-0.146c-2.019 9.064-7.368 15.219-15.833 17.866-2.009 0.597-4.317 0.941-6.705 0.941-1.674 0-3.309-0.169-4.888-0.491l0.157 0.027c-1.846-0.445-3.429-0.978-4.95-1.63l0.2 0.076c-0.904-0.398-1.655-0.794-2.375-1.234l0.087 0.049c-0.237-0.139-0.472-0.292-0.709-0.431 0.539 0.073 1.163 0.114 1.796 0.114 0.277 0 0.551-0.008 0.824-0.024l-0.038 0.002c0.796-0.123 1.574-0.092 2.308-0.246 1.825-0.36 3.449-0.968 4.933-1.797l-0.084 0.043c0.837-0.395 1.558-0.873 2.2-1.44l-0.010 0.009c-0.864-0.003-1.69-0.16-2.454-0.447l0.049 0.016c-2.431-0.84-4.307-2.73-5.111-5.113l-0.017-0.057c0.433 0.083 0.931 0.131 1.439 0.131 0.772 0 1.519-0.11 2.226-0.314l-0.056 0.014c-1.005-0.139-1.902-0.516-2.658-1.073l0.016 0.011c-2.296-1.372-3.809-3.844-3.809-6.67 0-0.084 0.001-0.168 0.004-0.252l-0 0.012c0.277 0.123 0.552 0.262 0.828 0.385 0.486 0.204 1.055 0.37 1.646 0.47l0.047 0.007c0.218 0.079 0.47 0.124 0.732 0.124 0.132 0 0.261-0.011 0.387-0.034l-0.013 0.002h-0.040c-0.406-0.462-1.069-0.785-1.479-1.293-1.264-1.443-2.035-3.345-2.035-5.428 0-0.673 0.081-1.327 0.232-1.953l-0.012 0.056c0.222-0.803 0.519-1.503 0.892-2.153l-0.024 0.045c0.014 0 0.026 0.015 0.040 0.015 0.216 0.319 0.457 0.597 0.726 0.843l0.004 0.003c0.716 0.861 1.505 1.62 2.37 2.283l0.035 0.026c2.752 2.253 6.076 3.915 9.719 4.74l0.159 0.030c1.084 0.287 2.332 0.46 3.618 0.477l0.011 0c-0.142-0.548-0.224-1.178-0.224-1.826 0-0.702 0.096-1.382 0.275-2.028l-0.013 0.053c0.612-2.453 2.302-4.419 4.524-5.397l0.051-0.020c0.512-0.225 1.112-0.417 1.736-0.544l0.058-0.010c0.326-0.046 0.656-0.077 0.983-0.123z"></path>
</symbol>
</defs>
</svg>
