<svg xmlns="http://www.w3.org/2000/svg" xmlns:rdf="http://www.w3.org/1999/02/22-rdf-syntax-ns#" xmlns:cc="http://creativecommons.org/ns#" xmlns:dc="http://purl.org/dc/elements/1.1/"><symbol id="icon-car" viewBox="0 0 420.32 217.57">
 <g id="layer1" stroke-linejoin="round" transform="translate(-64.499 -302.75)" stroke="#000" stroke-linecap="round" fill="#fff">
  <path id="path5185" d="m83.918 451.82-17.231 8.2156-1.1884 19.952 17.231 0.58683z" stroke-width="2"/>
  <path id="path5187" d="m467.53 451.35 15.574 4.6139 0.70792 21.916h-13.45z" stroke-width="2"/>
  <path id="path4616" d="m78.237 481.05 393.01-2.0594c-0.85883-62.033-4.8518-169.38-37.288-170.79-100.2-5.5797-197.51-6.3863-292.11 0.34688-28.637 14.5-53.407 49.043-61.015 88.606-5.9697 31.042-2.4261 66.364-2.5914 83.897z" stroke-width="2"/>
  <g id="g5205">
   <path id="path4441" d="m194.75 476.97c1.5922 26.697-28.945 50.409-54.84 39.735-25.926-9.0053-36.088-44.161-18.981-65.259 12.322-17.181 39.098-22.419 56.181-8.9739 10.962 7.9084 18.064 21.055 17.64 34.498z" stroke-width="2"/>
   <path id="path4461" d="m177.29 476.45c0.87005 14.6-15.817 27.568-29.968 21.73-14.167-4.9249-19.72-24.151-10.372-35.689 6.7337-9.3958 21.365-12.261 30.701-4.9077 5.9904 4.325 9.871 11.514 9.6395 18.866z"/>
  </g>
  <path id="path5189" d="m92.793 400.08c3.4505-33.976 21.796-52.672 45.487-78.237h18.195l-0.90974 77.328z"/>
  <path id="path5191" d="m163.75 320.93-0.00001 78.237h92.793l0.90975-78.237z"/>
  <path id="path5193" d="m265.64 319.11-0.90975 79.147h98.252v-78.237z"/>
  <path id="path5195" d="m371.17 320.02 1.8195 78.237h81.876c0.71345-26.109-6.4396-53.823-19.104-76.418z"/>
  <path id="path5197" d="m79.162 410.23 390.26-1.0565-0.9248 13.91-390.26 2.4651z"/>
  <g id="g5209" transform="translate(249.27 -5.4584)">
   <path id="path5211" d="m194.75 476.97c1.5922 26.697-28.945 50.409-54.84 39.735-25.926-9.0053-36.088-44.161-18.981-65.259 12.322-17.181 39.098-22.419 56.181-8.9739 10.962 7.9084 18.064 21.055 17.64 34.498z" stroke-width="2"/>
   <path id="path5213" d="m177.29 476.45c0.87005 14.6-15.817 27.568-29.968 21.73-14.167-4.9249-19.72-24.151-10.372-35.689 6.7337-9.3958 21.365-12.261 30.701-4.9077 5.9904 4.325 9.871 11.514 9.6395 18.866z"/>
  </g>
 </g>
 <metadata>
  <rdf:RDF>
   <cc:Work>
    <dc:format>image/svg+xml</dc:format>
    <dc:type rdf:resource="http://purl.org/dc/dcmitype/StillImage"/>
    <cc:license rdf:resource="http://creativecommons.org/licenses/publicdomain/"/>
    <dc:publisher>
     <cc:Agent rdf:about="http://openclipart.org/">
      <dc:title>Openclipart</dc:title>
     </cc:Agent>
    </dc:publisher>
   </cc:Work>
   <cc:License rdf:about="http://creativecommons.org/licenses/publicdomain/">
    <cc:permits rdf:resource="http://creativecommons.org/ns#Reproduction"/>
    <cc:permits rdf:resource="http://creativecommons.org/ns#Distribution"/>
    <cc:permits rdf:resource="http://creativecommons.org/ns#DerivativeWorks"/>
   </cc:License>
  </rdf:RDF>
 </metadata>
</symbol><symbol id="icon-rr"><path d="M17.419.01a5.393 5.393 0 0 1 4.151 1.65 8.665 8.665 0 0 0 2.691-.91l.653-.36a5.272 5.272 0 0 1-1.7 2.47 2.512 2.512 0 0 1-.577.41v.01a9.769 9.769 0 0 0 2.973-.8v.01a8.535 8.535 0 0 1-1.781 2.04c-.273.22-.547.44-.82.65a15.155 15.155 0 0 1-.243 3.38c-1.312 5.89-4.788 9.89-10.289 11.61a15.83 15.83 0 0 1-7.432.31 19.915 19.915 0 0 1-3.087-1.01 12.912 12.912 0 0 1-1.487-.77c-.154-.09-.307-.19-.461-.28a9.219 9.219 0 0 0 1.678.06c.517-.08 1.023-.06 1.5-.16a10.77 10.77 0 0 0 3.151-1.14 5.97 5.97 0 0 0 1.423-.93 4.58 4.58 0 0 1-1.563-.28 5.294 5.294 0 0 1-3.332-3.36 5.194 5.194 0 0 0 2.345-.11 3.767 3.767 0 0 1-1.717-.69 5.032 5.032 0 0 1-2.473-4.49c.18.08.359.17.538.25a5.152 5.152 0 0 0 1.1.31 1.444 1.444 0 0 0 .718.06h-.026c-.264-.3-.695-.51-.961-.84a5.365 5.365 0 0 1-1.179-4.76A6 6 0 0 1 1.776.97c.009 0 .017.01.026.01a3.044 3.044 0 0 0 .474.55 9.443 9.443 0 0 0 1.563 1.5 15.43 15.43 0 0 0 6.419 3.1 10.137 10.137 0 0 0 2.358.31 4.908 4.908 0 0 1 .025-2.47A5.165 5.165 0 0 1 15.614.45 5.9 5.9 0 0 1 16.78.09c.212-.03.426-.05.639-.08z" fill="#f38181" fill-rule="evenodd"/></symbol><symbol id="icon-st"><path d="M8.145 16.63c-.209.84-.42 1.71-.638 2.56a18.96 18.96 0 0 1-.718 2.47 12.691 12.691 0 0 1-2.043 3.53c-.575.66-.453.4-.626.36-.132-.03-.143-.16-.169-.34a19.314 19.314 0 0 1 .007-3.34 18.15 18.15 0 0 1 .589-3.48c.484-2.06.946-4.08 1.435-6.16a1.422 1.422 0 0 0 .09-.44 6.471 6.471 0 0 1-.429-1.7 5.448 5.448 0 0 1 .139-1.95A3.224 3.224 0 0 1 7.676 5.8a2.206 2.206 0 0 1 1.735.14 1.851 1.851 0 0 1 .867 1.24 4.463 4.463 0 0 1-.08 1.89c-.267 1.22-.618 2.14-.937 3.31a3.648 3.648 0 0 0-.189 1.81 2.119 2.119 0 0 0 .847 1.28 2.493 2.493 0 0 0 1.625.46 3.572 3.572 0 0 0 2.651-1.57 9.309 9.309 0 0 0 1.675-4.69 11.565 11.565 0 0 0 .07-2.01 5.473 5.473 0 0 0-1.127-3.12 5.282 5.282 0 0 0-2.512-1.71 8.285 8.285 0 0 0-3.747-.23 6.613 6.613 0 0 0-4.915 3.53 7.085 7.085 0 0 0-.837 3.41 4.438 4.438 0 0 0 .678 2.5c.133.2.328.37.458.6a1.718 1.718 0 0 1-.119 1.16c-.11.43-.122 1.01-.618 1.02a1.377 1.377 0 0 1-.638-.24 5.108 5.108 0 0 1-2.422-3.74 8.878 8.878 0 0 1 0-3.23 9.244 9.244 0 0 1 4.4-6.15A10.4 10.4 0 0 1 8.448.12a13.322 13.322 0 0 1 1.605-.13 9.627 9.627 0 0 1 4.326.8 8.862 8.862 0 0 1 2.98 2.15 8.14 8.14 0 0 1 1.834 3.31 7.922 7.922 0 0 1 .4 2.29 13.861 13.861 0 0 1-.308 2.37 9.315 9.315 0 0 1-3.838 6.45 6.924 6.924 0 0 1-4 1.1 4.642 4.642 0 0 1-1.983-.58 3.306 3.306 0 0 1-1.319-1.25z" fill="#f38181" fill-rule="evenodd"/></symbol><symbol id="icon-tw"><path d="M22.387 25.61h-19.2a3.2 3.2 0 0 1-3.2-3.2V3.21a3.2 3.2 0 0 1 3.2-3.2h19.2a3.2 3.2 0 0 1 3.2 3.2v19.2a3.2 3.2 0 0 1-3.2 3.2zm-9.6-17.76a4.954 4.954 0 0 0-4.5 2.88.244.244 0 0 1-.022.05 6.4 6.4 0 0 0-.128.33c-.019.05-.04.1-.057.15-.037.11-.067.23-.1.34-.014.05-.03.11-.042.16-.026.12-.044.24-.061.37-.007.05-.017.1-.023.15a5.074 5.074 0 0 0-.029.53 4.96 4.96 0 1 0 9.92 0 5.074 5.074 0 0 0-.029-.53c-.006-.05-.016-.1-.023-.15a4.462 4.462 0 0 0-.061-.37 4.716 4.716 0 0 0-.042-.16c-.028-.11-.058-.23-.1-.34-.017-.05-.038-.1-.057-.15a6.4 6.4 0 0 0-.128-.33.244.244 0 0 1-.022-.05 4.954 4.954 0 0 0-4.496-2.88zm9.92-3.68a1.278 1.278 0 0 0-1.28-1.28h-2.56a1.278 1.278 0 0 0-1.28 1.28v2.56a1.278 1.278 0 0 0 1.28 1.28h2.56a1.278 1.278 0 0 0 1.28-1.28V4.17zm0 6.56h-2.36a7.84 7.84 0 1 1-15.12 0h-2.36v10.72a1.278 1.278 0 0 0 1.28 1.28h17.28a1.278 1.278 0 0 0 1.28-1.28V10.73z" fill="#f38181" fill-rule="evenodd"/></symbol></svg>