<svg xmlns="http://www.w3.org/2000/svg"><symbol id="icon-alarm"><path d="M30.74 9.5a15.727 15.727 0 0 0-8.243-8.24A5.868 5.868 0 0 1 30.74 9.5zM30.5 16a14.442 14.442 0 0 1-3.963 9.94l2.029 2.03a1.482 1.482 0 0 1-1.049 2.53 1.51 1.51 0 0 1-1.049-.43l-2.178-2.18a14.471 14.471 0 0 1-16.566.01l-2.163 2.16a1.5 1.5 0 1 1-2.122-2.12l2.012-2.01A14.495 14.495 0 1 1 30.5 16zM16 4.5A11.5 11.5 0 1 0 27.5 16 11.5 11.5 0 0 0 16 4.5zm6 13h-6a1.5 1.5 0 0 1-1.5-1.5V8a1.5 1.5 0 0 1 3 0v6.5H22a1.5 1.5 0 0 1 0 3zM1.287 9.71A6 6 0 0 1 6 0a5.935 5.935 0 0 1 3.706 1.29 16.016 16.016 0 0 0-8.419 8.42z" fill="#95e1d3" fill-rule="evenodd"/></symbol><symbol id="icon-book"><path data-name="BOOK 2" d="M31.065 25.89l-14.471 5.99a1.53 1.53 0 0 1-1.188 0L.935 25.89A1.5 1.5 0 0 1 0 24.5v-23A1.5 1.5 0 0 1 1.5 0a1.55 1.55 0 0 1 .573.11.012.012 0 0 0 .013.01L16 5.88 29.911.12a.012.012 0 0 0 .013-.01 1.55 1.55 0 0 1 .573-.11 1.5 1.5 0 0 1 1.5 1.5v23a1.5 1.5 0 0 1-.932 1.39zM14.5 8.5L3 3.74V23.5l11.5 4.76V8.5zM29 3.74L17.5 8.5v19.76L29 23.5V3.74zm-9.121 6.89l5.5-2.5A1.593 1.593 0 0 1 26 8a1.5 1.5 0 0 1 .621 2.87l-5.5 2.5a1.6 1.6 0 0 1-.621.13 1.5 1.5 0 0 1-.621-2.87zm0 5.5l5.5-2.5A1.593 1.593 0 0 1 26 13.5a1.5 1.5 0 0 1 .621 2.87l-5.5 2.5v-.01a1.445 1.445 0 0 1-.621.14 1.5 1.5 0 0 1-.621-2.87zm0 5.5l5.5-2.5A1.593 1.593 0 0 1 26 19a1.5 1.5 0 0 1 .621 2.87l-5.5 2.5a1.6 1.6 0 0 1-.621.13 1.5 1.5 0 0 1-.621-2.87zM6 8a1.6 1.6 0 0 1 .621.13l5.5 2.5a1.5 1.5 0 0 1-.621 2.87 1.593 1.593 0 0 1-.621-.13l-5.5-2.5A1.5 1.5 0 0 1 6 8zm0 5.5a1.6 1.6 0 0 1 .621.13l5.5 2.5A1.5 1.5 0 0 1 11.5 19a1.439 1.439 0 0 1-.621-.14v.01l-5.5-2.5A1.5 1.5 0 0 1 6 13.5zM6 19a1.6 1.6 0 0 1 .621.13l5.5 2.5a1.5 1.5 0 0 1-.621 2.87 1.593 1.593 0 0 1-.621-.13l-5.5-2.5A1.5 1.5 0 0 1 6 19z" fill="#95e1d3" fill-rule="evenodd"/></symbol><symbol id="icon-cart"><path data-name="SHOPPING CART" d="M17.54 3.1l-2.48 5.5a.815.815 0 0 1-.7.484l-7.12.475.41 1.177h7.76a1.65 1.65 0 1 1-1.65 1.651h-7.7a1.65 1.65 0 1 1-1.65-1.651H5.9L2.72 1.661H.83a.825.825 0 0 1 0-1.65h2.48a.835.835 0 0 1 .78.554l.48 1.373h12.21a.826.826 0 0 1 .83.825.941.941 0 0 1-.07.337zm-12.39.487l1.52 4.357 7.09-.473 1.75-3.884H5.15z" fill="#fff" fill-rule="evenodd"/></symbol><symbol id="icon-comp"><path data-name="COMPUTER / OK" d="M29.5 23H20v2.5l2 2v.5H9v-.5l2-2V23H1.5A1.5 1.5 0 0 1 0 21.5v-20A1.5 1.5 0 0 1 1.5 0h28A1.5 1.5 0 0 1 31 1.5v20a1.5 1.5 0 0 1-1.5 1.5zM29 2H2v17h27V2zM12.5 9a1.505 1.505 0 0 1 1.06.44l.94.94 2.94-2.94a1.5 1.5 0 1 1 2.12 2.12l-4 4a1.5 1.5 0 0 1-2.12 0l-2-2A1.5 1.5 0 0 1 12.5 9z" fill="#95e1d3" fill-rule="evenodd"/></symbol><symbol id="icon-facebook"><path d="M11.995.01v4.12s-3.037-.3-3.8.86c-.416.64-.169 2.5-.206 3.84h4.029c-.34 1.56-.584 2.62-.835 3.98H7.967v12.8H2.385V12.86H.01V8.83h2.349c.12-2.95.165-5.87 1.629-7.35C5.634-.19 7.206.01 11.995.01z" fill="#fff" fill-rule="evenodd"/></symbol><symbol id="icon-glass"><path data-name="MAGNIFYING GLASS" d="M17.13 14.795a1.653 1.653 0 0 1-2.34 2.334l-4.83-4.836a6.627 6.627 0 1 1 2.33-2.334l4.84 4.836zM6.61 1.661a4.95 4.95 0 1 0 4.95 4.95 4.953 4.953 0 0 0-4.95-4.95z" fill="#fff" fill-rule="evenodd"/></symbol><symbol id="icon-home"><path d="M32 16a1.493 1.493 0 0 1-2.52 1.09v.01L16.041 3.66l-.038-.04L2.557 17.07a1.525 1.525 0 0 1-1.053.43 1.5 1.5 0 0 1-1.5-1.5 1.479 1.479 0 0 1 .461-1.08L14.923.46A1.51 1.51 0 0 1 16.004 0h.092c.023 0 .045.01.068.01a1.479 1.479 0 0 1 .933.47l5.9 5.9V5a1.5 1.5 0 0 1 3 0v4.38l5.6 5.6A1.485 1.485 0 0 1 32 16zm-3 2.5V29a1.5 1.5 0 0 1-1.5 1.5h-3v-12h-6v12h-14A1.5 1.5 0 0 1 3 29V18.5l13-13zm-15.5 0h-6v6h6v-6z" fill="#95e1d3" fill-rule="evenodd"/></symbol><symbol id="icon-image"><path d="M30.5 32h-29A1.5 1.5 0 0 1 0 30.5v-29A1.5 1.5 0 0 1 1.5 0h29A1.5 1.5 0 0 1 32 1.5v29a1.5 1.5 0 0 1-1.5 1.5zM29 3H3v26h26V3zM6.5 4.5H12a1.5 1.5 0 0 1 0 3H7.5V12a1.5 1.5 0 0 1-3 0V4.5h2zM4.5 20a1.5 1.5 0 0 1 3 0v4.5H12a1.5 1.5 0 0 1 0 3H4.5V20zM20 4.5h7.5V12a1.5 1.5 0 0 1-3 0V7.5H20a1.5 1.5 0 0 1 0-3zm0 20h4.5V20a1.5 1.5 0 0 1 3 0v7.5H20a1.5 1.5 0 0 1 0-3z" fill="#95e1d3" fill-rule="evenodd"/></symbol><symbol id="icon-instagram"><path d="M22.387 25.61h-19.2a3.2 3.2 0 0 1-3.2-3.2V3.21a3.2 3.2 0 0 1 3.2-3.2h19.2a3.2 3.2 0 0 1 3.2 3.2v19.2a3.2 3.2 0 0 1-3.2 3.2zm-9.6-17.76a4.954 4.954 0 0 0-4.5 2.88.244.244 0 0 1-.022.05 6.4 6.4 0 0 0-.128.33c-.019.05-.04.1-.057.15-.037.11-.067.23-.1.34-.014.05-.03.11-.042.16-.026.12-.044.24-.061.37-.007.05-.017.1-.023.15a5.074 5.074 0 0 0-.029.53 4.96 4.96 0 1 0 9.92 0 5.074 5.074 0 0 0-.029-.53c-.006-.05-.016-.1-.023-.15a4.462 4.462 0 0 0-.061-.37 4.716 4.716 0 0 0-.042-.16c-.028-.11-.058-.23-.1-.34-.017-.05-.038-.1-.057-.15a6.4 6.4 0 0 0-.128-.33.244.244 0 0 1-.022-.05 4.954 4.954 0 0 0-4.496-2.88zm9.92-3.68a1.278 1.278 0 0 0-1.28-1.28h-2.56a1.278 1.278 0 0 0-1.28 1.28v2.56a1.278 1.278 0 0 0 1.28 1.28h2.56a1.278 1.278 0 0 0 1.28-1.28V4.17zm0 6.56h-2.36a7.84 7.84 0 1 1-15.12 0h-2.36v10.72a1.278 1.278 0 0 0 1.28 1.28h17.28a1.278 1.278 0 0 0 1.28-1.28V10.73z" fill="#f38181" fill-rule="evenodd"/></symbol><symbol id="icon-line"><path data-name="LINE GRAPH" d="M30.5 32h-29A1.5 1.5 0 0 1 0 30.5v-29A1.5 1.5 0 0 1 1.5 0h29A1.5 1.5 0 0 1 32 1.5v29a1.5 1.5 0 0 1-1.5 1.5zM29 3H3v26h26V3zM5.215 16.24l4-2.5a1.524 1.524 0 0 1 1.625.03h.006l6.631 4.42 7.638-5.4a1.501 1.501 0 1 1 1.763 2.43l-8.5 6a1.486 1.486 0 0 1-.878.29 1.505 1.505 0 0 1-.861-.28L9.982 16.8l-3.135 1.95a1.465 1.465 0 0 1-.847.27 1.5 1.5 0 0 1-.785-2.78z" fill="#95e1d3" fill-rule="evenodd"/></symbol><symbol id="icon-pinterest"><path d="M8.145 16.63c-.209.84-.42 1.71-.638 2.56a18.96 18.96 0 0 1-.718 2.47 12.691 12.691 0 0 1-2.043 3.53c-.575.66-.453.4-.626.36-.132-.03-.143-.16-.169-.34a19.314 19.314 0 0 1 .007-3.34 18.15 18.15 0 0 1 .589-3.48c.484-2.06.946-4.08 1.435-6.16a1.422 1.422 0 0 0 .09-.44 6.471 6.471 0 0 1-.429-1.7 5.448 5.448 0 0 1 .139-1.95A3.224 3.224 0 0 1 7.676 5.8a2.206 2.206 0 0 1 1.735.14 1.851 1.851 0 0 1 .867 1.24 4.463 4.463 0 0 1-.08 1.89c-.267 1.22-.618 2.14-.937 3.31a3.648 3.648 0 0 0-.189 1.81 2.119 2.119 0 0 0 .847 1.28 2.493 2.493 0 0 0 1.625.46 3.572 3.572 0 0 0 2.651-1.57 9.309 9.309 0 0 0 1.675-4.69 11.565 11.565 0 0 0 .07-2.01 5.473 5.473 0 0 0-1.127-3.12 5.282 5.282 0 0 0-2.512-1.71 8.285 8.285 0 0 0-3.747-.23 6.613 6.613 0 0 0-4.915 3.53 7.085 7.085 0 0 0-.837 3.41 4.438 4.438 0 0 0 .678 2.5c.133.2.328.37.458.6a1.718 1.718 0 0 1-.119 1.16c-.11.43-.122 1.01-.618 1.02a1.377 1.377 0 0 1-.638-.24 5.108 5.108 0 0 1-2.422-3.74 8.878 8.878 0 0 1 0-3.23 9.244 9.244 0 0 1 4.4-6.15A10.4 10.4 0 0 1 8.448.12a13.322 13.322 0 0 1 1.605-.13 9.627 9.627 0 0 1 4.326.8 8.862 8.862 0 0 1 2.98 2.15 8.14 8.14 0 0 1 1.834 3.31 7.922 7.922 0 0 1 .4 2.29 13.861 13.861 0 0 1-.308 2.37 9.315 9.315 0 0 1-3.838 6.45 6.924 6.924 0 0 1-4 1.1 4.642 4.642 0 0 1-1.983-.58 3.306 3.306 0 0 1-1.319-1.25z" fill="#f38181" fill-rule="evenodd"/></symbol><symbol id="icon-twitter"><path d="M17.419.01a5.393 5.393 0 0 1 4.151 1.65 8.665 8.665 0 0 0 2.691-.91l.653-.36a5.272 5.272 0 0 1-1.7 2.47 2.512 2.512 0 0 1-.577.41v.01a9.769 9.769 0 0 0 2.973-.8v.01a8.535 8.535 0 0 1-1.781 2.04c-.273.22-.547.44-.82.65a15.155 15.155 0 0 1-.243 3.38c-1.312 5.89-4.788 9.89-10.289 11.61a15.83 15.83 0 0 1-7.432.31 19.915 19.915 0 0 1-3.087-1.01 12.912 12.912 0 0 1-1.487-.77c-.154-.09-.307-.19-.461-.28a9.219 9.219 0 0 0 1.678.06c.517-.08 1.023-.06 1.5-.16a10.77 10.77 0 0 0 3.151-1.14 5.97 5.97 0 0 0 1.423-.93 4.58 4.58 0 0 1-1.563-.28 5.294 5.294 0 0 1-3.332-3.36 5.194 5.194 0 0 0 2.345-.11 3.767 3.767 0 0 1-1.717-.69 5.032 5.032 0 0 1-2.473-4.49c.18.08.359.17.538.25a5.152 5.152 0 0 0 1.1.31 1.444 1.444 0 0 0 .718.06h-.026c-.264-.3-.695-.51-.961-.84a5.365 5.365 0 0 1-1.179-4.76A6 6 0 0 1 1.776.97c.009 0 .017.01.026.01a3.044 3.044 0 0 0 .474.55 9.443 9.443 0 0 0 1.563 1.5 15.43 15.43 0 0 0 6.419 3.1 10.137 10.137 0 0 0 2.358.31 4.908 4.908 0 0 1 .025-2.47A5.165 5.165 0 0 1 15.614.45 5.9 5.9 0 0 1 16.78.09c.212-.03.426-.05.639-.08z" fill="#f38181" fill-rule="evenodd"/></symbol></svg>