<svg xmlns="http://www.w3.org/2000/svg"><defs>
    <style>
      .cls-1 {
        fill: #95e1d3;
        fill-rule: evenodd;
      }
    </style>
  
    <style>
      .cls-1 {
        fill: #95e1d3;
        fill-rule: evenodd;
      }
    </style>
  
    <style>
      .cls-1 {
        fill: #95e1d3;
        fill-rule: evenodd;
      }
    </style>
  
    <style>
      .cls-1 {
        fill: #fff;
        fill-rule: evenodd;
      }
    </style>
  
    <style>
      .cls-1 {
        fill: #95e1d3;
        fill-rule: evenodd;
      }
    </style>
  
    <style>
      .cls-1 {
        fill: #fff;
        fill-rule: evenodd;
      }
    </style>
  
    <style>
      .cls-1 {
        fill: #fff;
        fill-rule: evenodd;
      }
    </style>
  
    <style>
      .cls-1 {
        fill: #95e1d3;
        fill-rule: evenodd;
      }
    </style>
  
    <style>
      .cls-1 {
        fill: #f38181;
        fill-rule: evenodd;
      }
    </style>
  
    <style>
      .cls-1 {
        fill: #95e1d3;
        fill-rule: evenodd;
      }
    </style>
  
    <style>
      .cls-1 {
        fill: #f38181;
        fill-rule: evenodd;
      }
    </style>
  
    <style>
      .cls-1 {
        fill: #f38181;
        fill-rule: evenodd;
      }
    </style>
  </defs><symbol id="icon- image" viewBox="0 0 32 32">
  <metadata><?xpacket begin="﻿" id="W5M0MpCehiHzreSzNTczkc9d"?>
<x:xmpmeta xmlns:x="adobe:ns:meta/" x:xmptk="Adobe XMP Core 5.6-c138 79.159824, 2016/09/14-01:09:01        ">
   <rdf:RDF xmlns:rdf="http://www.w3.org/1999/02/22-rdf-syntax-ns#">
      <rdf:Description rdf:about=""/>
   </rdf:RDF>
</x:xmpmeta>
                                                                                                    
                                                                                                    
                                                                                                    
                                                                                                    
                                                                                                    
                                                                                                    
                                                                                                    
                                                                                                    
                                                                                                    
                                                                                                    
                                                                                                    
                                                                                                    
                                                                                                    
                                                                                                    
                                                                                                    
                                                                                                    
                                                                                                    
                                                                                                    
                                                                                                    
                                                                                                    
                           
<?xpacket end="w"?></metadata>

  <path id="IMAGE" class="cls-1" d="M1220.5,1428h-29a1.5,1.5,0,0,1-1.5-1.5v-29a1.5,1.5,0,0,1,1.5-1.5h29a1.5,1.5,0,0,1,1.5,1.5v29A1.5,1.5,0,0,1,1220.5,1428Zm-1.5-29h-26v26h26v-26Zm-22.5,1.5h5.5a1.5,1.5,0,0,1,0,3h-4.5v4.5h0a1.5,1.5,0,0,1-3,0h0v-5.5h0v-2h2Zm-2,15.5h0a1.5,1.5,0,0,1,3,0h0v4.5h4.5a1.5,1.5,0,0,1,0,3h-7.5v-2h0V1416Zm15.5-15.5h7.5v2h0v5.5h0a1.5,1.5,0,0,1-3,0h0v-4.5H1210A1.5,1.5,0,0,1,1210,1400.5Zm0,20h4.5V1416h0a1.5,1.5,0,0,1,3,0h0v5.5h0v2H1210A1.5,1.5,0,0,1,1210,1420.5Z" transform="translate(-1190 -1396)"/>
</symbol><symbol id="icon-alarm" viewBox="0 0 32 30.5">
  <metadata><?xpacket begin="﻿" id="W5M0MpCehiHzreSzNTczkc9d"?>
<x:xmpmeta xmlns:x="adobe:ns:meta/" x:xmptk="Adobe XMP Core 5.6-c138 79.159824, 2016/09/14-01:09:01        ">
   <rdf:RDF xmlns:rdf="http://www.w3.org/1999/02/22-rdf-syntax-ns#">
      <rdf:Description rdf:about=""/>
   </rdf:RDF>
</x:xmpmeta>
                                                                                                    
                                                                                                    
                                                                                                    
                                                                                                    
                                                                                                    
                                                                                                    
                                                                                                    
                                                                                                    
                                                                                                    
                                                                                                    
                                                                                                    
                                                                                                    
                                                                                                    
                                                                                                    
                                                                                                    
                                                                                                    
                                                                                                    
                                                                                                    
                                                                                                    
                                                                                                    
                           
<?xpacket end="w"?></metadata>

  <path id="ALARM" class="cls-1" d="M420.74,1236.5a15.727,15.727,0,0,0-8.243-8.24A5.868,5.868,0,0,1,420.74,1236.5Zm-0.24,6.5a14.442,14.442,0,0,1-3.963,9.94l2.029,2.03a1.482,1.482,0,0,1-1.049,2.53,1.51,1.51,0,0,1-1.049-.43l-2.178-2.18a14.471,14.471,0,0,1-16.566.01l-2.163,2.16a1.5,1.5,0,1,1-2.122-2.12l2.012-2.01A14.495,14.495,0,1,1,420.5,1243ZM406,1231.5a11.5,11.5,0,1,0,11.5,11.5A11.5,11.5,0,0,0,406,1231.5Zm6,13h-6a1.5,1.5,0,0,1-1.5-1.5v-8a1.5,1.5,0,0,1,3,0v6.5H412A1.5,1.5,0,0,1,412,1244.5Zm-20.713-7.79A6,6,0,0,1,396,1227a5.935,5.935,0,0,1,3.706,1.29A16.016,16.016,0,0,0,391.287,1236.71Z" transform="translate(-390 -1227)"/>
</symbol><symbol id="icon-book" viewBox="0 0 32 32">
  <metadata><?xpacket begin="﻿" id="W5M0MpCehiHzreSzNTczkc9d"?>
<x:xmpmeta xmlns:x="adobe:ns:meta/" x:xmptk="Adobe XMP Core 5.6-c138 79.159824, 2016/09/14-01:09:01        ">
   <rdf:RDF xmlns:rdf="http://www.w3.org/1999/02/22-rdf-syntax-ns#">
      <rdf:Description rdf:about=""/>
   </rdf:RDF>
</x:xmpmeta>
                                                                                                    
                                                                                                    
                                                                                                    
                                                                                                    
                                                                                                    
                                                                                                    
                                                                                                    
                                                                                                    
                                                                                                    
                                                                                                    
                                                                                                    
                                                                                                    
                                                                                                    
                                                                                                    
                                                                                                    
                                                                                                    
                                                                                                    
                                                                                                    
                                                                                                    
                                                                                                    
                           
<?xpacket end="w"?></metadata>

  <path id="BOOK_2" data-name="BOOK 2" class="cls-1" d="M422.065,1421.89l-14.471,5.99a1.53,1.53,0,0,1-1.188,0l-14.471-5.99a1.5,1.5,0,0,1-.935-1.39v-23a1.5,1.5,0,0,1,1.5-1.5,1.55,1.55,0,0,1,.573.11h0a0.012,0.012,0,0,0,.013.01L407,1401.88l13.911-5.76a0.012,0.012,0,0,0,.013-0.01h0a1.55,1.55,0,0,1,.573-0.11,1.5,1.5,0,0,1,1.5,1.5v23A1.5,1.5,0,0,1,422.065,1421.89ZM405.5,1404.5l-11.5-4.76v19.76l11.5,4.76V1404.5Zm14.5-4.76-11.5,4.76v19.76l11.5-4.76v-19.76Zm-9.121,6.89,5.5-2.5h0A1.593,1.593,0,0,1,417,1404a1.5,1.5,0,0,1,.621,2.87h0l-5.5,2.5h0a1.6,1.6,0,0,1-.621.13A1.5,1.5,0,0,1,410.879,1406.63Zm0,5.5h0l5.5-2.5h0a1.593,1.593,0,0,1,.621-0.13,1.5,1.5,0,0,1,.621,2.87l-5.5,2.5v-0.01a1.445,1.445,0,0,1-.621.14A1.5,1.5,0,0,1,410.879,1412.13Zm0,5.5h0l5.5-2.5h0A1.593,1.593,0,0,1,417,1415a1.5,1.5,0,0,1,.621,2.87h0l-5.5,2.5h0a1.6,1.6,0,0,1-.621.13A1.5,1.5,0,0,1,410.879,1417.63ZM397,1404a1.6,1.6,0,0,1,.621.13h0l5.5,2.5h0a1.5,1.5,0,0,1-.621,2.87,1.593,1.593,0,0,1-.621-0.13h0l-5.5-2.5h0A1.5,1.5,0,0,1,397,1404Zm0,5.5a1.6,1.6,0,0,1,.621.13h0l5.5,2.5h0a1.5,1.5,0,0,1-.621,2.87,1.439,1.439,0,0,1-.621-0.14v0.01l-5.5-2.5h0A1.5,1.5,0,0,1,397,1409.5Zm0,5.5a1.6,1.6,0,0,1,.621.13h0l5.5,2.5h0a1.5,1.5,0,0,1-.621,2.87,1.593,1.593,0,0,1-.621-0.13h0l-5.5-2.5h0A1.5,1.5,0,0,1,397,1415Z" transform="translate(-391 -1396)"/>
</symbol><symbol id="icon-cart" viewBox="0 0 17.62 14.031">
  <metadata><?xpacket begin="﻿" id="W5M0MpCehiHzreSzNTczkc9d"?>
<x:xmpmeta xmlns:x="adobe:ns:meta/" x:xmptk="Adobe XMP Core 5.6-c138 79.159824, 2016/09/14-01:09:01        ">
   <rdf:RDF xmlns:rdf="http://www.w3.org/1999/02/22-rdf-syntax-ns#">
      <rdf:Description rdf:about=""/>
   </rdf:RDF>
</x:xmpmeta>
                                                                                                    
                                                                                                    
                                                                                                    
                                                                                                    
                                                                                                    
                                                                                                    
                                                                                                    
                                                                                                    
                                                                                                    
                                                                                                    
                                                                                                    
                                                                                                    
                                                                                                    
                                                                                                    
                                                                                                    
                                                                                                    
                                                                                                    
                                                                                                    
                                                                                                    
                                                                                                    
                           
<?xpacket end="w"?></metadata>

  <path id="SHOPPING_CART" data-name="SHOPPING CART" class="cls-1" d="M1501.73,40.663h0l-2.48,5.5h0a0.815,0.815,0,0,1-.7.484h0l-7.12.475,0.41,1.177h7.76a1.65,1.65,0,1,1-1.65,1.651h-7.7a1.65,1.65,0,1,1-1.65-1.651h1.49l-3.18-9.075h-1.89a0.825,0.825,0,0,1,0-1.65h2.48a0.835,0.835,0,0,1,.78.554h0l0.48,1.373h12.21a0.826,0.826,0,0,1,.83.825A0.941,0.941,0,0,1,1501.73,40.663Zm-12.39.487,1.52,4.357,7.09-.473,1.75-3.884h-10.36Z" transform="translate(-1484.19 -37.563)"/>
</symbol><symbol id="icon-comp" viewBox="0 0 31 28">
  <metadata><?xpacket begin="﻿" id="W5M0MpCehiHzreSzNTczkc9d"?>
<x:xmpmeta xmlns:x="adobe:ns:meta/" x:xmptk="Adobe XMP Core 5.6-c138 79.159824, 2016/09/14-01:09:01        ">
   <rdf:RDF xmlns:rdf="http://www.w3.org/1999/02/22-rdf-syntax-ns#">
      <rdf:Description rdf:about=""/>
   </rdf:RDF>
</x:xmpmeta>
                                                                                                    
                                                                                                    
                                                                                                    
                                                                                                    
                                                                                                    
                                                                                                    
                                                                                                    
                                                                                                    
                                                                                                    
                                                                                                    
                                                                                                    
                                                                                                    
                                                                                                    
                                                                                                    
                                                                                                    
                                                                                                    
                                                                                                    
                                                                                                    
                                                                                                    
                                                                                                    
                           
<?xpacket end="w"?></metadata>

  <path id="COMPUTER_OK" data-name="COMPUTER / OK" class="cls-1" d="M1220,1250h-9.5v2.5l2,2v0.5h-13v-0.5l2-2V1250H1192a1.5,1.5,0,0,1-1.5-1.5v-20a1.5,1.5,0,0,1,1.5-1.5h28a1.5,1.5,0,0,1,1.5,1.5v20A1.5,1.5,0,0,1,1220,1250Zm-0.5-21h-27v17h27v-17Zm-16.5,7a1.505,1.505,0,0,1,1.06.44h0l0.94,0.94,2.94-2.94h0a1.5,1.5,0,1,1,2.12,2.12h0l-4,4h0a1.5,1.5,0,0,1-2.12,0h0l-2-2h0A1.5,1.5,0,0,1,1203,1236Z" transform="translate(-1190.5 -1227)"/>
</symbol><symbol id="icon-facebook" viewBox="0 0 12.031 25.62">
  <metadata><?xpacket begin="﻿" id="W5M0MpCehiHzreSzNTczkc9d"?>
<x:xmpmeta xmlns:x="adobe:ns:meta/" x:xmptk="Adobe XMP Core 5.6-c138 79.159824, 2016/09/14-01:09:01        ">
   <rdf:RDF xmlns:rdf="http://www.w3.org/1999/02/22-rdf-syntax-ns#">
      <rdf:Description rdf:about=""/>
   </rdf:RDF>
</x:xmpmeta>
                                                                                                    
                                                                                                    
                                                                                                    
                                                                                                    
                                                                                                    
                                                                                                    
                                                                                                    
                                                                                                    
                                                                                                    
                                                                                                    
                                                                                                    
                                                                                                    
                                                                                                    
                                                                                                    
                                                                                                    
                                                                                                    
                                                                                                    
                                                                                                    
                                                                                                    
                                                                                                    
                           
<?xpacket end="w"?></metadata>

  <path id="facebook" class="cls-1" d="M463.089,2060.2v4.12s-3.037-.3-3.8.86c-0.416.64-.169,2.5-0.206,3.84h4.029c-0.34,1.56-.584,2.62-0.835,3.98h-3.216v12.8h-5.582c0-3.95,0-8.55,0-12.75h-2.375v-4.03h2.349c0.12-2.95.165-5.87,1.629-7.35C456.728,2060,458.3,2060.2,463.089,2060.2Z" transform="translate(-451.094 -2060.19)"/>
</symbol><symbol id="icon-glass" viewBox="0 0 17.62 17.625">
  <metadata><?xpacket begin="﻿" id="W5M0MpCehiHzreSzNTczkc9d"?>
<x:xmpmeta xmlns:x="adobe:ns:meta/" x:xmptk="Adobe XMP Core 5.6-c138 79.159824, 2016/09/14-01:09:01        ">
   <rdf:RDF xmlns:rdf="http://www.w3.org/1999/02/22-rdf-syntax-ns#">
      <rdf:Description rdf:about=""/>
   </rdf:RDF>
</x:xmpmeta>
                                                                                                    
                                                                                                    
                                                                                                    
                                                                                                    
                                                                                                    
                                                                                                    
                                                                                                    
                                                                                                    
                                                                                                    
                                                                                                    
                                                                                                    
                                                                                                    
                                                                                                    
                                                                                                    
                                                                                                    
                                                                                                    
                                                                                                    
                                                                                                    
                                                                                                    
                                                                                                    
                           
<?xpacket end="w"?></metadata>

  <path id="MAGNIFYING_GLASS" data-name="MAGNIFYING GLASS" class="cls-1" d="M1561.32,50.983a1.652,1.652,0,0,1-2.34,2.334h0l-4.83-4.836a6.627,6.627,0,1,1,2.33-2.334l4.84,4.836h0ZM1550.8,37.849a4.95,4.95,0,1,0,4.95,4.95A4.953,4.953,0,0,0,1550.8,37.849Z" transform="translate(-1544.19 -36.188)"/>
</symbol><symbol id="icon-home" viewBox="0 0 32 30.5">
  <metadata><?xpacket begin="﻿" id="W5M0MpCehiHzreSzNTczkc9d"?>
<x:xmpmeta xmlns:x="adobe:ns:meta/" x:xmptk="Adobe XMP Core 5.6-c138 79.159824, 2016/09/14-01:09:01        ">
   <rdf:RDF xmlns:rdf="http://www.w3.org/1999/02/22-rdf-syntax-ns#">
      <rdf:Description rdf:about=""/>
   </rdf:RDF>
</x:xmpmeta>
                                                                                                    
                                                                                                    
                                                                                                    
                                                                                                    
                                                                                                    
                                                                                                    
                                                                                                    
                                                                                                    
                                                                                                    
                                                                                                    
                                                                                                    
                                                                                                    
                                                                                                    
                                                                                                    
                                                                                                    
                                                                                                    
                                                                                                    
                                                                                                    
                                                                                                    
                                                                                                    
                           
<?xpacket end="w"?></metadata>

  <path id="HOME" class="cls-1" d="M822,1412.5a1.493,1.493,0,0,1-2.52,1.09l0,0.01-13.439-13.44h0l-0.038-.04h0l-13.446,13.45h0a1.525,1.525,0,0,1-1.053.43,1.5,1.5,0,0,1-1.5-1.5,1.479,1.479,0,0,1,.461-1.08l14.458-14.46a1.51,1.51,0,0,1,1.081-.46h0.092c0.023,0,.045.01,0.068,0.01h0a1.479,1.479,0,0,1,.933.47h0l5.9,5.9v-1.38a1.5,1.5,0,0,1,3,0v4.38l5.6,5.6h0A1.485,1.485,0,0,1,822,1412.5Zm-3,2.5v10.5a1.5,1.5,0,0,1-1.5,1.5h-3v-12h-6v12h-14a1.5,1.5,0,0,1-1.5-1.5V1415l13-13Zm-15.5,0h-6v6h6v-6Z" transform="translate(-790 -1396.5)"/>
</symbol><symbol id="icon-instagram" viewBox="0 0 25.593 25.62">
  <metadata><?xpacket begin="﻿" id="W5M0MpCehiHzreSzNTczkc9d"?>
<x:xmpmeta xmlns:x="adobe:ns:meta/" x:xmptk="Adobe XMP Core 5.6-c138 79.159824, 2016/09/14-01:09:01        ">
   <rdf:RDF xmlns:rdf="http://www.w3.org/1999/02/22-rdf-syntax-ns#">
      <rdf:Description rdf:about=""/>
   </rdf:RDF>
</x:xmpmeta>
                                                                                                    
                                                                                                    
                                                                                                    
                                                                                                    
                                                                                                    
                                                                                                    
                                                                                                    
                                                                                                    
                                                                                                    
                                                                                                    
                                                                                                    
                                                                                                    
                                                                                                    
                                                                                                    
                                                                                                    
                                                                                                    
                                                                                                    
                                                                                                    
                                                                                                    
                                                                                                    
                           
<?xpacket end="w"?></metadata>

  <path id="instagram" class="cls-1" d="M632.7,2085.8H613.5a3.2,3.2,0,0,1-3.2-3.2v-19.2a3.2,3.2,0,0,1,3.2-3.2h19.2a3.2,3.2,0,0,1,3.2,3.2v19.2A3.2,3.2,0,0,1,632.7,2085.8Zm-9.6-17.76a4.954,4.954,0,0,0-4.5,2.88h0a0.244,0.244,0,0,1-.022.05c-0.047.11-.088,0.22-0.128,0.33-0.019.05-.04,0.1-0.057,0.15-0.037.11-.067,0.23-0.1,0.34-0.014.05-.03,0.11-0.042,0.16-0.026.12-.044,0.24-0.061,0.37-0.007.05-.017,0.1-0.023,0.15a5.074,5.074,0,0,0-.029.53,4.96,4.96,0,1,0,9.92,0,5.074,5.074,0,0,0-.029-0.53c-0.006-.05-0.016-0.1-0.023-0.15-0.017-.13-0.035-0.25-0.061-0.37-0.012-.05-0.028-0.11-0.042-0.16-0.028-.11-0.058-0.23-0.1-0.34-0.017-.05-0.038-0.1-0.057-0.15-0.04-.11-0.081-0.22-0.128-0.33a0.244,0.244,0,0,1-.022-0.05h0A4.954,4.954,0,0,0,623.1,2068.04Zm9.92-3.68a1.278,1.278,0,0,0-1.28-1.28h-2.56a1.278,1.278,0,0,0-1.28,1.28v2.56a1.278,1.278,0,0,0,1.28,1.28h2.56a1.278,1.278,0,0,0,1.28-1.28v-2.56Zm0,6.56h-2.36a7.84,7.84,0,1,1-15.12,0h-2.36v10.72a1.278,1.278,0,0,0,1.28,1.28h17.28a1.278,1.278,0,0,0,1.28-1.28v-10.72Z" transform="translate(-610.313 -2060.19)"/>
</symbol><symbol id="icon-line" viewBox="0 0 32 32">
  <metadata><?xpacket begin="﻿" id="W5M0MpCehiHzreSzNTczkc9d"?>
<x:xmpmeta xmlns:x="adobe:ns:meta/" x:xmptk="Adobe XMP Core 5.6-c138 79.159824, 2016/09/14-01:09:01        ">
   <rdf:RDF xmlns:rdf="http://www.w3.org/1999/02/22-rdf-syntax-ns#">
      <rdf:Description rdf:about=""/>
   </rdf:RDF>
</x:xmpmeta>
                                                                                                    
                                                                                                    
                                                                                                    
                                                                                                    
                                                                                                    
                                                                                                    
                                                                                                    
                                                                                                    
                                                                                                    
                                                                                                    
                                                                                                    
                                                                                                    
                                                                                                    
                                                                                                    
                                                                                                    
                                                                                                    
                                                                                                    
                                                                                                    
                                                                                                    
                                                                                                    
                           
<?xpacket end="w"?></metadata>

  <path id="LINE_GRAPH" data-name="LINE GRAPH" class="cls-1" d="M821.5,1258h-29a1.5,1.5,0,0,1-1.5-1.5v-29a1.5,1.5,0,0,1,1.5-1.5h29a1.5,1.5,0,0,1,1.5,1.5v29A1.5,1.5,0,0,1,821.5,1258Zm-1.5-29H794v26h26v-26Zm-23.785,13.24h0l4-2.5h0a1.524,1.524,0,0,1,1.625.03h0.006l6.631,4.42,7.638-5.4a1.5,1.5,0,1,1,1.763,2.43h0l-8.5,6h0a1.486,1.486,0,0,1-.878.29,1.505,1.505,0,0,1-.861-0.28l-6.657-4.43-3.135,1.95a1.465,1.465,0,0,1-.847.27A1.5,1.5,0,0,1,796.215,1242.24Z" transform="translate(-791 -1226)"/>
</symbol><symbol id="icon-pinterest" viewBox="0 0 19.594 25.62">
  <metadata><?xpacket begin="﻿" id="W5M0MpCehiHzreSzNTczkc9d"?>
<x:xmpmeta xmlns:x="adobe:ns:meta/" x:xmptk="Adobe XMP Core 5.6-c138 79.159824, 2016/09/14-01:09:01        ">
   <rdf:RDF xmlns:rdf="http://www.w3.org/1999/02/22-rdf-syntax-ns#">
      <rdf:Description rdf:about=""/>
   </rdf:RDF>
</x:xmpmeta>
                                                                                                    
                                                                                                    
                                                                                                    
                                                                                                    
                                                                                                    
                                                                                                    
                                                                                                    
                                                                                                    
                                                                                                    
                                                                                                    
                                                                                                    
                                                                                                    
                                                                                                    
                                                                                                    
                                                                                                    
                                                                                                    
                                                                                                    
                                                                                                    
                                                                                                    
                                                                                                    
                           
<?xpacket end="w"?></metadata>

  <path id="pinterest" class="cls-1" d="M566.051,2076.85c-0.209.84-.42,1.71-0.638,2.56a18.96,18.96,0,0,1-.718,2.47,12.691,12.691,0,0,1-2.043,3.53c-0.575.66-.453,0.4-0.626,0.36-0.132-.03-0.143-0.16-0.169-0.34a19.314,19.314,0,0,1,.007-3.34,18.15,18.15,0,0,1,.589-3.48c0.484-2.06.946-4.08,1.435-6.16a1.422,1.422,0,0,0,.09-0.44,6.471,6.471,0,0,1-.429-1.7,5.448,5.448,0,0,1,.139-1.95,3.224,3.224,0,0,1,1.894-2.34,2.206,2.206,0,0,1,1.735.14,1.851,1.851,0,0,1,.867,1.24,4.463,4.463,0,0,1-.08,1.89c-0.267,1.22-.618,2.14-0.937,3.31a3.648,3.648,0,0,0-.189,1.81,2.119,2.119,0,0,0,.847,1.28,2.493,2.493,0,0,0,1.625.46,3.572,3.572,0,0,0,2.651-1.57,9.309,9.309,0,0,0,1.675-4.69,11.565,11.565,0,0,0,.07-2.01,5.473,5.473,0,0,0-1.127-3.12,5.282,5.282,0,0,0-2.512-1.71,8.285,8.285,0,0,0-3.747-.23,6.613,6.613,0,0,0-4.915,3.53,7.085,7.085,0,0,0-.837,3.41,4.438,4.438,0,0,0,.678,2.5c0.133,0.2.328,0.37,0.458,0.6a1.718,1.718,0,0,1-.119,1.16c-0.11.43-.122,1.01-0.618,1.02a1.377,1.377,0,0,1-.638-0.24,5.108,5.108,0,0,1-2.422-3.74,8.878,8.878,0,0,1,0-3.23,9.244,9.244,0,0,1,4.4-6.15,10.4,10.4,0,0,1,3.907-1.34,13.322,13.322,0,0,1,1.605-.13,9.627,9.627,0,0,1,4.326.8,8.862,8.862,0,0,1,2.98,2.15,8.14,8.14,0,0,1,1.834,3.31,7.922,7.922,0,0,1,.4,2.29,13.861,13.861,0,0,1-.308,2.37,9.315,9.315,0,0,1-3.838,6.45,6.924,6.924,0,0,1-4,1.1,4.642,4.642,0,0,1-1.983-.58A3.306,3.306,0,0,1,566.051,2076.85Z" transform="translate(-557.906 -2060.22)"/>
</symbol><symbol id="icon-twitter" viewBox="0 0 25.594 20.79">
  <metadata><?xpacket begin="﻿" id="W5M0MpCehiHzreSzNTczkc9d"?>
<x:xmpmeta xmlns:x="adobe:ns:meta/" x:xmptk="Adobe XMP Core 5.6-c138 79.159824, 2016/09/14-01:09:01        ">
   <rdf:RDF xmlns:rdf="http://www.w3.org/1999/02/22-rdf-syntax-ns#">
      <rdf:Description rdf:about=""/>
   </rdf:RDF>
</x:xmpmeta>
                                                                                                    
                                                                                                    
                                                                                                    
                                                                                                    
                                                                                                    
                                                                                                    
                                                                                                    
                                                                                                    
                                                                                                    
                                                                                                    
                                                                                                    
                                                                                                    
                                                                                                    
                                                                                                    
                                                                                                    
                                                                                                    
                                                                                                    
                                                                                                    
                                                                                                    
                                                                                                    
                           
<?xpacket end="w"?></metadata>

  <path id="twitter" class="cls-1" d="M516.513,2062.6a5.393,5.393,0,0,1,4.151,1.65,8.665,8.665,0,0,0,2.691-.91l0.653-.36a5.272,5.272,0,0,1-1.7,2.47,2.512,2.512,0,0,1-.577.41v0.01a9.769,9.769,0,0,0,2.973-.8v0.01a8.535,8.535,0,0,1-1.781,2.04c-0.273.22-.547,0.44-0.82,0.65a15.155,15.155,0,0,1-.243,3.38c-1.312,5.89-4.788,9.89-10.289,11.61a15.83,15.83,0,0,1-7.432.31,19.915,19.915,0,0,1-3.087-1.01,12.912,12.912,0,0,1-1.487-.77c-0.154-.09-0.307-0.19-0.461-0.28a9.219,9.219,0,0,0,1.678.06c0.517-.08,1.023-0.06,1.5-0.16a10.77,10.77,0,0,0,3.151-1.14,5.97,5.97,0,0,0,1.423-.93,4.58,4.58,0,0,1-1.563-.28,5.294,5.294,0,0,1-3.332-3.36,5.194,5.194,0,0,0,2.345-.11,3.767,3.767,0,0,1-1.717-.69,5.032,5.032,0,0,1-2.473-4.49c0.18,0.08.359,0.17,0.538,0.25a5.152,5.152,0,0,0,1.1.31,1.444,1.444,0,0,0,.718.06h-0.026c-0.264-.3-0.695-0.51-0.961-0.84a5.365,5.365,0,0,1-1.179-4.76,6,6,0,0,1,.564-1.37c0.009,0,.017.01,0.026,0.01a3.044,3.044,0,0,0,.474.55,9.443,9.443,0,0,0,1.563,1.5,15.43,15.43,0,0,0,6.419,3.1,10.137,10.137,0,0,0,2.358.31,4.908,4.908,0,0,1,.025-2.47,5.165,5.165,0,0,1,2.973-3.52,5.9,5.9,0,0,1,1.166-.36C516.086,2062.65,516.3,2062.63,516.513,2062.6Z" transform="translate(-499.094 -2062.59)"/>
</symbol></svg>